<?xml version="1.0" encoding="utf-8"?>
<!-- Generator: Adobe Illustrator 25.4.1, SVG Export Plug-In . SVG Version: 6.00 Build 0)  -->
<svg version="1.1" id="Layer_1" xmlns="http://www.w3.org/2000/svg" xmlns:xlink="http://www.w3.org/1999/xlink" x="0px" y="0px"
	 viewBox="0 0 166.7 83.5" style="enable-background:new 0 0 166.7 83.5;" xml:space="preserve">
<g>
	<path d="M134.6,29.3L131,46.7h3.1l3.5-17.5h6.5l-6.1,29.9c-0.4,1.9-2.1,3.2-4,3.3h-9.4c-1.5,0.1-2.7-1.1-2.7-2.5
		c0-0.3,0-0.5,0.1-0.8l1.2-6h6.4l-1.1,5.6h3.1c0,0,1.4-6.8,1.4-6.8h-6.2c-1.8,0-3-1.5-2.6-3.7l3.8-19H134.6z"/>
	<g>
		<polygon points="49.2,29.3 44.6,51.9 37.2,51.9 41.8,29.3 		"/>
		<polygon points="43,23.4 42,28.1 49.4,28.1 50.4,23.4 		"/>
	</g>
	<g>
		<polygon points="76,29.3 71.4,51.9 64.1,51.9 68.7,29.3 		"/>
		<polygon points="69.8,23.4 68.9,28.1 76.3,28.1 77.2,23.4 		"/>
	</g>
	<polygon points="83.6,36.5 81.8,45.4 74.4,45.4 76.2,36.5 	"/>
	<path d="M113.6,45.4h9.6l2.6-12.7c0.4-1.4-0.4-2.9-1.9-3.3c-0.2-0.1-0.5-0.1-0.8-0.1h-9.4c-1.9,0.1-3.6,1.5-4,3.4l-3.2,16
		c-0.4,1.4,0.5,2.9,1.9,3.2c0.3,0.1,0.5,0.1,0.8,0.1h9.4c1.9-0.1,3.6-1.4,4-3.3l0.4-1.9h-9.6L113.6,45.4z M119,34.1l-1.2,6h-3.1
		l1.2-6H119z"/>
	<polygon points="92.3,46 95,51.9 105.9,51.9 98.9,36.5 111.7,23.4 100.8,23.4 95.8,28.6 96.8,23.4 87.8,23.4 82.1,51.9 91.1,51.9 	
		"/>
	<path d="M17.1,51.9l5.8-28.5h15.3c1.4-0.1,2.7,1,2.7,2.5c0,0.3,0,0.5-0.1,0.8l-4.4,21.9c-0.4,1.9-2.1,3.3-4,3.4H17.1z M29,29.3
		l-3.5,17.4h3.9l3.5-17.4L29,29.3z"/>
	<path d="M60.9,59.2c-0.4,1.9-2.1,3.2-4,3.3h-9.4c-1.5,0.1-2.7-1.1-2.7-2.5c0-0.3,0-0.5,0.1-0.8l1.2-6h6.4l-1.1,5.6h3.1
		c0,0,1.4-6.8,1.4-6.8h-6.2c-1.5,0.1-2.7-1.1-2.7-2.5c0-0.3,0-0.5,0.1-0.8l3.2-16c0.4-1.9,2.1-3.2,4-3.3h12.8L60.9,59.2z M56.3,34.1
		l-2.5,12.6h3.1l2.5-12.6H56.3z"/>
	<path d="M148.1,30.6c0.1-0.8,0.8-1.4,1.6-1.4c0.8,0.1,1.4,0.8,1.4,1.6c0,0.8-0.7,1.4-1.5,1.4C148.7,32.2,148.1,31.5,148.1,30.6
		C148.1,30.6,148.1,30.6,148.1,30.6z M149.5,32.5c1,0,1.9-0.8,1.9-1.9c0-1-0.8-1.9-1.9-1.9s-1.9,0.8-1.9,1.9c0,0,0,0,0,0
		C147.7,31.6,148.5,32.5,149.5,32.5C149.5,32.5,149.5,32.5,149.5,32.5L149.5,32.5z M149.2,30.7h0.4l0.6,0.9h0.4l-0.6-1
		c0.3,0,0.6-0.3,0.5-0.6c0,0,0,0,0,0c0-0.4-0.2-0.6-0.7-0.6h-0.8v2.2h0.3L149.2,30.7z M149.2,30.4v-0.7h0.4c0.2,0,0.5,0,0.5,0.3
		c0,0.3-0.2,0.4-0.5,0.4H149.2z"/>
	<path d="M83.4,4.1c21.6,0,41.9,4.2,57.1,11.8c14.3,7.1,22.1,16.3,22.1,25.8s-7.9,18.7-22.1,25.8c-15.2,7.6-35.5,11.8-57.1,11.8
		s-41.9-4.2-57.1-11.8C12,60.4,4.1,51.3,4.1,41.8S12,23.1,26.3,15.9C41.4,8.3,61.7,4.1,83.4,4.1 M83.4,0C37.3,0,0,18.7,0,41.8
		s37.3,41.8,83.4,41.8s83.4-18.7,83.4-41.8S129.4,0,83.4,0z"/>
	<g>
		<path d="M65.8,62.9l1.5-6.9H71l-0.3,1.4h-2.1l-0.3,1.3h2L70.1,60h-2l-0.3,1.5H70l-0.3,1.4L65.8,62.9z"/>
		<path d="M70.4,62.9l1.5-6.9h1.6l-1.2,5.5h2L74,62.9H70.4z"/>
		<path d="M74.5,62.9L76,56h3.7l-0.3,1.4h-2.1l-0.3,1.3h2L78.8,60h-2l-0.3,1.5h2.2l-0.3,1.4L74.5,62.9z"/>
		<path d="M82.8,58.4l0.1-0.4c0.1-0.6,0-0.9-0.3-0.9c-0.5,0-0.7,0.3-0.8,0.7L81,61.2c-0.1,0.4,0,0.6,0.5,0.6c0.6,0,0.7-0.6,0.8-1
			l0.1-0.6H84l-0.2,0.8c-0.3,1.3-1.5,2.2-2.8,2c-1.5,0-1.9-0.8-1.6-2.2l0.6-2.8c0.1-1.3,1.3-2.3,2.6-2.2c1.4,0,2.1,0.6,1.8,2
			l-0.1,0.6L82.8,58.4z"/>
		<path d="M85.3,56h4.2l-0.3,1.4H88l-1.2,5.5h-1.6l1.2-5.5h-1.3L85.3,56z"/>
		<path d="M90.3,62.9h-1.6l1.5-6.9h2.4c1.3,0,1.9,0.5,1.6,1.9c-0.1,0.7-0.5,1.3-1.2,1.6v0c0.4,0.1,0.7,0.4,0.6,0.8c0,0,0,0,0,0.1
			c-0.1,0.6-0.3,1.7-0.3,2.2c0,0.1,0,0.2,0.1,0.2l0,0.1h-1.8c0-0.1,0-0.3,0-0.4c0.1-0.6,0.3-1.2,0.3-1.6s0-0.7-0.4-0.7h-0.5
			L90.3,62.9z M91.2,58.9h0.6c0.5,0,0.7-0.4,0.8-0.9c0.2-0.8-0.2-0.9-0.9-0.8L91.2,58.9z"/>
		<path d="M98.6,60.7c-0.3,1.6-1.1,2.4-2.7,2.4s-2-0.8-1.7-2.4l0.6-2.8c0.2-1.3,1.4-2.2,2.6-2.1c1.4,0,2,0.7,1.8,2.1L98.6,60.7z
			 M97.5,58c0.1-0.4,0.2-0.9-0.4-0.9c-0.5,0-0.7,0.5-0.8,0.9l-0.6,2.8c-0.1,0.4-0.1,1,0.4,1s0.7-0.6,0.8-1L97.5,58z"/>
		<path d="M101.1,59L101.1,59l-0.7,3.9h-1.5l1.5-6.9h1.7l0.4,3.9h0l0.7-3.9h1.5l-1.5,6.9h-1.7L101.1,59z"/>
		<path d="M104,62.9l1.5-6.9h1.6l-1.5,6.9H104z"/>
		<path d="M110.2,58.4l0.1-0.4c0.1-0.6,0-0.9-0.3-0.9c-0.5,0-0.7,0.3-0.8,0.7l-0.7,3.4c-0.1,0.4,0,0.6,0.5,0.6c0.6,0,0.7-0.6,0.8-1
			l0.1-0.6h1.6l-0.2,0.8c-0.3,1.3-1.5,2.2-2.8,2c-1.5,0-1.9-0.8-1.6-2.2l0.6-2.8c0.1-1.3,1.3-2.3,2.6-2.2c1.4,0,2.1,0.6,1.8,2
			l-0.1,0.6L110.2,58.4z"/>
		<path d="M113.4,60.6l-0.1,0.5c-0.1,0.4,0,0.7,0.5,0.7c0.4,0,0.7-0.3,0.7-0.7c0.1-0.6-0.3-0.8-0.7-1.1c-0.4-0.2-0.8-0.5-1-0.9
			c-0.2-0.4-0.3-0.9-0.2-1.4c0.2-1.2,1.3-2,2.5-2c1.4,0,1.9,0.9,1.6,2.2h-1.5c0.1-0.4,0.2-1-0.3-1c-0.3,0-0.6,0.2-0.7,0.5
			c-0.1,0.3,0,0.7,0.3,0.8c0.5,0.3,0.9,0.6,1.3,1c0.4,0.5,0.5,1.1,0.2,1.7c-0.2,1.2-1.3,2.1-2.5,2.1c-1.5,0-1.9-0.8-1.7-1.7l0.2-0.7
			L113.4,60.6z"/>
	</g>
</g>
</svg>
