<?xml version="1.0" encoding="utf-8"?>
<!-- Generator: Adobe Illustrator 25.4.1, SVG Export Plug-In . SVG Version: 6.00 Build 0)  -->
<svg version="1.1" id="Layer_1" xmlns="http://www.w3.org/2000/svg" xmlns:xlink="http://www.w3.org/1999/xlink" x="0px" y="0px"
	 viewBox="0 0 356 50" style="enable-background:new 0 0 356 50;" xml:space="preserve">
<style type="text/css">
	.st0{fill:#212121;}
</style>
<g>
	<g>
		<path class="st0" d="M10.9,18.3v8.5h9.7v-8.5h3.7v21.4h-3.7V30h-9.7v9.7H7.1V18.3H10.9z"/>
		<path class="st0" d="M37.5,18.3l8.2,21.4h-4l-2-5.7h-8.5l-2,5.7h-3.9l8.2-21.4H37.5z M38.7,31.2L35.5,22h-0.1l-3.2,9.2H38.7z"/>
		<path class="st0" d="M60.5,23.4c-0.3-0.5-0.6-1-1.1-1.3c-0.4-0.4-1-0.7-1.5-0.9c-0.6-0.2-1.3-0.3-2.1-0.3c-1.1,0-2.1,0.2-3,0.7
			s-1.5,1.1-2,1.8C50.4,24.1,50,25,49.7,26c-0.2,1-0.4,2-0.4,3c0,1,0.1,2,0.4,3c0.2,1,0.6,1.9,1.2,2.6c0.5,0.8,1.2,1.4,2,1.8
			c0.8,0.5,1.8,0.7,3,0.7c0.8,0,1.6-0.1,2.2-0.4c0.6-0.3,1.2-0.7,1.6-1.2c0.5-0.5,0.8-1.1,1.1-1.8c0.3-0.7,0.4-1.4,0.5-2.2H65
			c-0.1,1.3-0.4,2.4-0.8,3.5c-0.5,1.1-1.1,2-1.9,2.7c-0.8,0.8-1.7,1.4-2.8,1.8c-1.1,0.4-2.3,0.6-3.6,0.6c-1.6,0-3-0.3-4.3-0.9
			c-1.3-0.6-2.3-1.4-3.2-2.4c-0.9-1-1.6-2.2-2-3.6s-0.7-2.8-0.7-4.3c0-1.5,0.2-3,0.7-4.3s1.1-2.5,2-3.6c0.9-1,2-1.8,3.2-2.4
			c1.3-0.6,2.7-0.9,4.3-0.9c1.2,0,2.3,0.2,3.4,0.5c1.1,0.3,2,0.8,2.8,1.4c0.8,0.6,1.5,1.4,2,2.3c0.5,0.9,0.8,1.9,0.9,3.1h-3.7
			C61,24.5,60.8,23.9,60.5,23.4z"/>
		<path class="st0" d="M71.1,18.3V28l9.5-9.7h4.6l-8.5,8.5l9.1,12.9h-4.7l-7-10.2l-3.1,3v7.2h-3.7V18.3H71.1z"/>
		<path class="st0" d="M96.5,18.3l8.2,21.4h-4l-2-5.7h-8.5l-2,5.7h-3.9l8.2-21.4H96.5z M97.8,31.2L94.6,22h-0.1l-3.2,9.2H97.8z"/>
		<path class="st0" d="M114.6,18.3c1.6,0,3.1,0.3,4.3,0.8c1.2,0.6,2.2,1.3,2.9,2.3c0.8,1,1.3,2.1,1.7,3.4c0.4,1.3,0.6,2.7,0.6,4.2
			c0,1.5-0.2,2.9-0.6,4.2c-0.4,1.3-0.9,2.4-1.7,3.4c-0.8,1-1.7,1.7-2.9,2.3c-1.2,0.6-2.6,0.8-4.3,0.8h-8.9V18.3H114.6z M113.2,36.6
			c1.5,0,2.7-0.2,3.6-0.6c0.9-0.4,1.7-0.9,2.2-1.6c0.5-0.7,0.9-1.5,1.1-2.4c0.2-0.9,0.3-1.9,0.3-3c0-1.1-0.1-2.1-0.3-3
			c-0.2-0.9-0.5-1.7-1.1-2.4c-0.5-0.7-1.3-1.2-2.2-1.6c-0.9-0.4-2.1-0.6-3.6-0.6h-3.7v15.3H113.2z"/>
		<path class="st0" d="M136.1,18.3l8.2,21.4h-4l-2-5.7h-8.5l-2,5.7h-3.9l8.2-21.4H136.1z M137.3,31.2l-3.2-9.2H134l-3.2,9.2H137.3z"
			/>
		<path class="st0" d="M140.6,18.3h4.3l5.7,9.6l5.6-9.6h4.2l-8,13v8.4h-3.7v-8.4L140.6,18.3z"/>
	</g>
	<g>
		<polygon class="st0" points="232.7,24.3 249.7,24.3 249.7,18.8 236,18.8 227.4,27.7 227.4,40.2 232.7,40.2 232.7,40.2 		"/>
		<rect x="254" y="9.8" class="st0" width="5.5" height="30.4"/>
		<rect x="263.1" y="18.8" class="st0" width="5.5" height="21.3"/>
		<path class="st0" d="M281,18.8l-8.6,8.9v12.5h5.3V24.3h14.4v15.9h5.3V23.8c0-2.7-2.2-4.9-4.9-4.9H281z"/>
		<path class="st0" d="M172.6,18.8v-9h-5.5v9v16.4c0,2.7,2.2,4.9,4.9,4.9h12.7l8.4-8.6v-7.8c0-2.7-2.2-4.9-4.9-4.9H172.6z
			 M187.8,34.7h-15.2V24.3h15.2V34.7z"/>
		<path class="st0" d="M219.5,18.8H207l-8.6,8.9v7.6c0,2.7,2.2,4.9,4.9,4.9h6.7v-5.5h-6.2V24.3h15.4v3.5h-3.7l-5.2,5.4h9.4
			c2.7,0,4.9-2.2,4.9-4.9v-4.6C224.4,21,222.2,18.8,219.5,18.8z"/>
		<rect x="263.1" y="9.8" class="st0" width="5.4" height="5.4"/>
	</g>
	<g>
		<path class="st0" d="M347,19.1l0,12.1l-8,8.2h-31.2V19.1H347L347,19.1 M347,18.3h-39.2c-0.4,0-0.8,0.4-0.8,0.8v20.3
			c0,0.4,0.4,0.8,0.8,0.8H339c0.2,0,0.4-0.1,0.5-0.2l8-8.2c0.1-0.1,0.2-0.3,0.2-0.5V19.1C347.8,18.7,347.4,18.3,347,18.3L347,18.3z"
			/>
		<g>
			<path class="st0" d="M313.1,34.1c0-0.8,0.2-1.5,0.6-2.1c0.4-0.6,0.9-1.1,1.5-1.6c0.3-0.2,0.6-0.5,1-0.7s0.6-0.4,0.9-0.7
				c0.3-0.2,0.5-0.5,0.7-0.8c0.2-0.3,0.3-0.6,0.3-1c0-0.2,0-0.4-0.1-0.6c0-0.2-0.1-0.4-0.2-0.5c-0.1-0.2-0.3-0.3-0.5-0.4
				c-0.2-0.1-0.5-0.2-0.8-0.2c-0.3,0-0.6,0.1-0.8,0.2c-0.2,0.1-0.4,0.3-0.5,0.5c-0.1,0.2-0.2,0.5-0.3,0.8c-0.1,0.3-0.1,0.6-0.1,0.9
				h-1.6c0-0.5,0.1-1,0.2-1.5c0.1-0.5,0.4-0.8,0.6-1.2c0.3-0.3,0.6-0.6,1-0.8c0.4-0.2,0.9-0.3,1.4-0.3c0.6,0,1.1,0.1,1.5,0.3
				c0.4,0.2,0.7,0.4,1,0.7c0.2,0.3,0.4,0.6,0.5,1s0.2,0.7,0.2,1c0,0.4-0.1,0.7-0.2,1c-0.1,0.3-0.3,0.6-0.5,0.9
				c-0.2,0.3-0.4,0.5-0.7,0.7c-0.3,0.2-0.5,0.4-0.8,0.6c-0.3,0.2-0.5,0.4-0.8,0.5c-0.3,0.2-0.5,0.3-0.8,0.5
				c-0.2,0.2-0.4,0.4-0.6,0.5c-0.2,0.2-0.3,0.4-0.4,0.6h4.7v1.4H313.1z"/>
			<path class="st0" d="M325.4,24.7c0.4,0.3,0.8,0.7,1,1.2c0.2,0.5,0.4,1,0.5,1.6c0.1,0.6,0.1,1.2,0.1,1.7c0,0.5,0,1.1-0.1,1.7
				c-0.1,0.6-0.3,1.1-0.5,1.6c-0.2,0.5-0.6,0.9-1,1.2c-0.4,0.3-1,0.5-1.7,0.5c-0.7,0-1.2-0.2-1.7-0.5c-0.4-0.3-0.8-0.7-1-1.2
				c-0.2-0.5-0.4-1-0.5-1.6c-0.1-0.6-0.1-1.2-0.1-1.7s0-1.1,0.1-1.7c0.1-0.6,0.3-1.1,0.5-1.6c0.2-0.5,0.6-0.9,1-1.2
				c0.4-0.3,1-0.5,1.7-0.5C324.4,24.3,324.9,24.4,325.4,24.7z M324.5,32.6c0.2-0.2,0.4-0.5,0.5-0.8c0.1-0.3,0.2-0.7,0.3-1.2
				c0.1-0.4,0.1-0.9,0.1-1.4s0-1-0.1-1.4c-0.1-0.4-0.1-0.8-0.3-1.2c-0.1-0.3-0.3-0.6-0.5-0.8c-0.2-0.2-0.5-0.3-0.9-0.3
				c-0.3,0-0.6,0.1-0.9,0.3c-0.2,0.2-0.4,0.5-0.5,0.8c-0.1,0.3-0.2,0.7-0.3,1.2s-0.1,0.9-0.1,1.4s0,1,0.1,1.4
				c0.1,0.4,0.1,0.8,0.3,1.2c0.1,0.3,0.3,0.6,0.5,0.8c0.2,0.2,0.5,0.3,0.9,0.3C324,32.9,324.3,32.8,324.5,32.6z"/>
			<path class="st0" d="M327.7,34.1c0-0.8,0.2-1.5,0.6-2.1c0.4-0.6,0.9-1.1,1.5-1.6c0.3-0.2,0.6-0.5,1-0.7c0.3-0.2,0.6-0.4,0.9-0.7
				c0.3-0.2,0.5-0.5,0.7-0.8c0.2-0.3,0.3-0.6,0.3-1c0-0.2,0-0.4-0.1-0.6c0-0.2-0.1-0.4-0.2-0.5c-0.1-0.2-0.3-0.3-0.5-0.4
				c-0.2-0.1-0.5-0.2-0.8-0.2c-0.3,0-0.6,0.1-0.8,0.2c-0.2,0.1-0.4,0.3-0.5,0.5c-0.1,0.2-0.2,0.5-0.3,0.8c-0.1,0.3-0.1,0.6-0.1,0.9
				h-1.6c0-0.5,0.1-1,0.2-1.5c0.1-0.5,0.4-0.8,0.6-1.2c0.3-0.3,0.6-0.6,1-0.8c0.4-0.2,0.9-0.3,1.4-0.3c0.6,0,1.1,0.1,1.5,0.3
				c0.4,0.2,0.7,0.4,1,0.7c0.2,0.3,0.4,0.6,0.5,1s0.2,0.7,0.2,1c0,0.4-0.1,0.7-0.2,1c-0.1,0.3-0.3,0.6-0.5,0.9
				c-0.2,0.3-0.4,0.5-0.7,0.7c-0.3,0.2-0.5,0.4-0.8,0.6c-0.3,0.2-0.5,0.4-0.8,0.5c-0.3,0.2-0.5,0.3-0.8,0.5
				c-0.2,0.2-0.4,0.4-0.6,0.5c-0.2,0.2-0.3,0.4-0.4,0.6h4.7v1.4H327.7z"/>
			<path class="st0" d="M338.3,28.4c0.3,0,0.5-0.1,0.7-0.2c0.2-0.1,0.4-0.3,0.5-0.5c0.1-0.2,0.2-0.4,0.2-0.7c0-0.4-0.1-0.7-0.4-1
				c-0.3-0.2-0.6-0.4-1.1-0.4c-0.3,0-0.5,0.1-0.7,0.2c-0.2,0.1-0.4,0.3-0.5,0.4c-0.1,0.2-0.2,0.4-0.3,0.6c-0.1,0.2-0.1,0.5-0.1,0.7
				H335c0-0.5,0.1-0.9,0.3-1.3c0.2-0.4,0.4-0.7,0.6-1c0.3-0.3,0.6-0.5,1-0.7c0.4-0.2,0.8-0.2,1.3-0.2c0.4,0,0.7,0.1,1.1,0.2
				c0.4,0.1,0.7,0.3,1,0.5c0.3,0.2,0.5,0.5,0.7,0.8c0.2,0.3,0.3,0.7,0.3,1.1c0,0.5-0.1,0.9-0.3,1.3c-0.2,0.4-0.6,0.6-1,0.8v0
				c0.5,0.1,1,0.4,1.3,0.8c0.3,0.4,0.5,1,0.5,1.6c0,0.5-0.1,0.9-0.3,1.2c-0.2,0.4-0.4,0.7-0.7,0.9c-0.3,0.3-0.7,0.4-1.1,0.6
				c-0.4,0.1-0.8,0.2-1.3,0.2c-0.6,0-1-0.1-1.5-0.2c-0.4-0.2-0.8-0.4-1-0.7c-0.3-0.3-0.5-0.6-0.6-1.1c-0.1-0.4-0.2-0.9-0.2-1.4h1.6
				c0,0.6,0.1,1.1,0.4,1.5c0.3,0.4,0.8,0.6,1.4,0.6c0.5,0,1-0.1,1.3-0.4c0.4-0.3,0.5-0.7,0.5-1.3c0-0.4-0.1-0.7-0.2-0.9
				c-0.1-0.2-0.3-0.4-0.6-0.5c-0.2-0.1-0.5-0.2-0.8-0.2c-0.3,0-0.6,0-0.9,0v-1.2C337.8,28.4,338.1,28.4,338.3,28.4z"/>
		</g>
	</g>
</g>
</svg>
